<?xml version="1.0" encoding="UTF-8"?>
<!DOCTYPE svg PUBLIC "-//W3C//DTD SVG 1.1//EN" "http://www.w3.org/Graphics/SVG/1.1/DTD/svg11.dtd">
<!-- Creator: CorelDRAW Home & Student X8 -->
<svg xmlns="http://www.w3.org/2000/svg" xml:space="preserve" width="150mm" height="150mm" version="1.1" style="shape-rendering:geometricPrecision; text-rendering:geometricPrecision; image-rendering:optimizeQuality; fill-rule:evenodd; clip-rule:evenodd"
viewBox="0 0 15000 15000"
 xmlns:xlink="http://www.w3.org/1999/xlink">
 <defs>
  <style type="text/css">
   <![CDATA[
    .fil1 {fill:#E30613}
    .fil0 {fill:#FFED00}
   ]]>
  </style>
 </defs>
 <g id="Ebene_x0020_1">
  <metadata id="CorelCorpID_0Corel-Layer"/>
  <rect class="fil0" width="15000" height="15000" rx="3989" ry="4000"/>
 </g>
 <g id="Ebene_x0020_1_0">
  <metadata id="CorelCorpID_1Corel-Layer"/>
  <g id="_352148208">
   <path class="fil1" d="M7137 2363c331,-741 2568,-744 3161,-329 -31,93 -61,217 -56,323 -650,-99 -1265,-124 -1857,-110 575,152 3801,639 3519,1910 -296,135 -1223,-388 -1737,-330 592,213 2325,793 1566,1664 -29,32 -65,113 -185,61 -121,-51 -472,-185 -974,-269 367,154 803,376 767,557 -132,445 -868,715 -1305,717 -412,-526 45,-819 -49,-1554 -259,-2040 -2565,-1952 -2850,-2640zm2271 3542c-617,40 -2477,-1307 -2844,-1746l212 -522c-736,-114 -2347,-190 -2816,366 -387,456 -732,228 -1164,433 -456,219 -381,826 -201,1191 381,-99 229,-287 759,-198 511,85 1537,570 1940,985 1331,1374 862,3663 2736,5195 379,310 686,554 972,975 306,451 650,1213 1138,795 394,-339 -102,-1056 -387,-1475 -252,-370 -767,-610 -1183,-834 -1754,-948 -1385,-3516 -2978,-4954 -582,-525 -2076,-1131 -2826,-860 -101,-423 32,-546 441,-615 543,-91 498,93 869,-314 468,-516 1337,-400 2003,-353l-267 467c1196,-92 1416,740 3206,1730 427,237 264,114 460,509 282,564 939,309 1394,60 836,-457 1633,-1248 1628,-2291 -8,-1730 -1760,-1555 -1933,-2086 -273,-843 1321,-483 1862,-386 -265,-255 -735,-386 -1136,-400 -699,-9 -779,122 -841,182 -130,-54 -447,-128 -676,-173 -680,-133 -2417,-192 -2860,435 -627,889 1000,1276 1533,1587 798,465 1317,1367 959,2297z"/>
   <path class="fil1" d="M9681 7722c-372,815 671,3138 1421,3583 -230,-503 -613,-890 -842,-1463 -182,-452 -460,-1518 -261,-1946 181,-171 1993,83 2547,-1387 -309,159 -480,591 -1097,895 -559,276 -1183,183 -1768,318z"/>
   <path class="fil1" d="M4468 4622c42,-128 272,-128 322,-15 -175,61 -367,231 -322,15zm18 731l48 -319c430,-49 222,6 492,-226 212,-181 269,-75 479,-261 -405,-452 -2091,-132 -1019,806z"/>
  </g>
 </g>
</svg>
